# MagicaVoxel @ Ephtracy

# material
mtllib Soldier.mtl
usemtl palette

# normals
vn -1 0 0
vn 1 0 0
vn 0 0 1
vn 0 0 -1
vn 0 -1 0
vn 0 1 0

# texcoords
vt 0.0175781 0.5
vt 0.0488281 0.5
vt 0.0527344 0.5
vt 0.0605469 0.5
vt 0.408203 0.5
vt 0.505859 0.5
vt 0.521484 0.5
vt 0.525391 0.5
vt 0.708984 0.5
vt 0.958984 0.5

# verts
v -4 4 -3
v -4 4 -4
v -4 5 5
v -4 5 4
v -4 5 2
v -4 5 1
v -4 6 5
v -4 6 4
v -4 6 2
v -4 6 1
v -4 6 -2
v -4 6 -3
v -4 6 -4
v -4 6 -5
v -4 7 4
v -4 7 2
v -4 7 -2
v -4 7 -3
v -4 7 -4
v -4 7 -5
v -4 8 -4
v -4 8 -5
v -4 9 -3
v -4 9 -4
v -4 10 -3
v -4 10 -4
v -4 11 -4
v -4 11 -5
v -4 15 -3
v -4 15 -4
v -3 2 4
v -3 2 2
v -3 3 5
v -3 3 4
v -3 3 2
v -3 3 1
v -3 5 6
v -3 5 5
v -3 5 4
v -3 5 2
v -3 5 1
v -3 5 -0
v -3 6 6
v -3 6 5
v -3 6 4
v -3 6 2
v -3 6 1
v -3 6 -0
v -3 7 5
v -3 7 4
v -3 7 2
v -3 7 1
v -3 8 4
v -3 8 2
v -2 8 3
v -2 8 2
v -2 8 -2
v -2 8 -3
v -2 9 2
v -2 9 -2
v -2 10 3
v -2 10 2
v -2 10 -2
v -2 10 -3
v -2 11 2
v -2 11 1
v -2 11 -1
v -2 11 -2
v -2 12 1
v -2 12 -1
v -1 2 1
v -1 2 -1
v -1 4 2
v -1 4 1
v -1 4 -1
v -1 4 -2
v -1 5 2
v -1 5 -2
v -1 5 -3
v -1 6 2
v -1 6 1
v -1 6 -1
v -1 6 -2
v -1 6 -3
v -1 7 2
v -1 7 1
v -1 7 -1
v -1 7 -2
v -1 8 2
v -1 8 1
v -1 8 -1
v -1 8 -2
v -1 9 2
v -1 9 1
v -1 9 -1
v -1 9 -2
v -1 10 3
v -1 10 2
v -1 10 -2
v -1 10 -3
v -1 11 3
v -1 11 2
v -1 11 1
v -1 11 -1
v -1 11 -2
v -1 11 -3
v -1 12 2
v -1 12 1
v -1 12 -1
v -1 12 -2
v 0 0 2
v 0 0 1
v 0 0 -1
v 0 0 -2
v 0 2 3
v 0 2 2
v 0 2 1
v 0 2 -1
v 0 2 -2
v 0 2 -3
v 0 4 2
v 0 4 1
v 0 4 -1
v 0 4 -2
v 0 5 3
v 0 5 2
v 0 5 -2
v 0 5 -3
v 0 7 3
v 0 7 2
v 0 7 -2
v 0 7 -3
v 0 8 3
v 0 8 2
v 0 8 -2
v 0 8 -3
v 0 9 1
v 0 9 -1
v 0 10 1
v 0 10 -1
v 1 5 4
v 1 5 3
v 1 6 4
v 1 6 3
v 2 1 2
v 2 1 1
v 2 2 1
v 2 2 -0
v 2 2 -1
v 2 2 -2
v 2 3 2
v 2 3 -0
v 2 3 -1
v 2 3 -2
v -3 4 -3
v -3 4 -4
v -3 5 -3
v -3 5 -4
v -3 6 -2
v -3 6 -3
v -3 6 -4
v -3 6 -5
v -3 7 -2
v -3 7 -3
v -3 7 -4
v -3 7 -5
v -3 8 -4
v -3 8 -5
v -3 9 -3
v -3 9 -4
v -3 10 -3
v -3 10 -4
v -3 11 -4
v -3 11 -5
v -3 15 -3
v -3 15 -4
v -2 2 4
v -2 2 2
v -2 3 5
v -2 3 4
v -2 3 2
v -2 3 1
v -2 5 6
v -2 5 5
v -2 5 3
v -2 5 2
v -2 5 1
v -2 5 -0
v -2 6 6
v -2 6 5
v -2 6 4
v -2 6 3
v -2 6 2
v -2 6 1
v -2 6 -0
v -2 7 5
v -2 7 4
v -2 7 2
v -2 7 1
v -2 8 4
v -2 8 3
v -2 8 2
v -1 9 1
v -1 9 -1
v -1 10 1
v -1 10 -1
v 0 10 3
v 0 10 2
v 0 10 -2
v 0 10 -3
v 0 11 3
v 0 11 2
v 0 11 1
v 0 11 -1
v 0 11 -2
v 0 11 -3
v 0 12 2
v 0 12 1
v 0 12 -1
v 0 12 -2
v 1 0 2
v 1 0 1
v 1 0 -1
v 1 0 -2
v 1 2 3
v 1 2 2
v 1 2 1
v 1 2 -1
v 1 2 -2
v 1 2 -3
v 1 3 3
v 1 3 1
v 1 3 -1
v 1 3 -3
v 1 6 2
v 1 6 1
v 1 6 -1
v 1 6 -2
v 1 7 3
v 1 7 2
v 1 7 1
v 1 7 -1
v 1 7 -2
v 1 7 -3
v 1 10 3
v 1 10 2
v 1 10 -2
v 1 10 -3
v 2 3 3
v 2 3 2
v 2 3 -2
v 2 3 -3
v 2 5 4
v 2 5 3
v 2 5 2
v 2 5 -2
v 2 5 -3
v 2 5 -4
v 2 6 4
v 2 6 2
v 2 6 1
v 2 6 -1
v 2 6 -2
v 2 6 -4
v 2 7 2
v 2 7 1
v 2 7 -1
v 2 7 -2
v 2 8 1
v 2 8 -1
v 2 10 2
v 2 10 1
v 2 10 -1
v 2 10 -2
v 2 11 1
v 2 11 -1
v 2 12 1
v 2 12 -1
v 3 1 2
v 3 1 1
v 3 2 1
v 3 2 -0
v 3 2 -1
v 3 2 -2
v 3 3 -0
v 3 3 -1
v 3 5 2
v 3 5 1
v 3 5 -1
v 3 5 -2
v 3 6 2
v 3 6 1
v 3 6 -1
v 3 6 -2
v 3 8 1
v 3 8 -1
v 3 10 2
v 3 10 1
v 3 10 -1
v 3 10 -2
v 3 11 2
v 3 11 -2
v -3 5 6
v -3 6 6
v -2 5 6
v -2 6 6
v -4 5 5
v -4 6 5
v -3 3 5
v -3 5 5
v -3 6 5
v -3 7 5
v -2 3 5
v -2 5 5
v -2 6 5
v -2 7 5
v -4 6 4
v -4 7 4
v -3 2 4
v -3 3 4
v -3 6 4
v -3 7 4
v -3 8 4
v -2 2 4
v -2 3 4
v -2 7 4
v -2 8 4
v 1 5 4
v 1 6 4
v 2 5 4
v 2 6 4
v -2 5 3
v -2 6 3
v -2 8 3
v -2 10 3
v -1 5 3
v -1 6 3
v -1 10 3
v -1 11 3
v 0 2 3
v 0 5 3
v 0 7 3
v 0 8 3
v 0 10 3
v 0 11 3
v 1 2 3
v 1 3 3
v 1 5 3
v 1 6 3
v 1 7 3
v 1 10 3
v 2 3 3
v 2 5 3
v -4 5 2
v -4 6 2
v -3 5 2
v -3 6 2
v -2 10 2
v -2 11 2
v -1 4 2
v -1 5 2
v -1 6 2
v -1 7 2
v -1 8 2
v -1 10 2
v -1 11 2
v -1 12 2
v 0 0 2
v 0 2 2
v 0 4 2
v 0 5 2
v 0 6 2
v 0 7 2
v 0 8 2
v 0 10 2
v 0 11 2
v 0 12 2
v 1 0 2
v 1 2 2
v 1 6 2
v 1 7 2
v 1 10 2
v 2 1 2
v 2 3 2
v 2 5 2
v 2 6 2
v 2 7 2
v 2 10 2
v 3 1 2
v 3 5 2
v 3 6 2
v 3 10 2
v 3 11 2
v -2 11 1
v -2 12 1
v -1 2 1
v -1 4 1
v -1 11 1
v -1 12 1
v 0 2 1
v 0 4 1
v 0 11 1
v 0 12 1
v 1 6 1
v 1 7 1
v 2 6 1
v 2 7 1
v 2 8 1
v 2 10 1
v 2 11 1
v 2 12 1
v 3 8 1
v 3 10 1
v -1 9 -1
v -1 10 -1
v 0 0 -1
v 0 2 -1
v 0 9 -1
v 0 10 -1
v 1 0 -1
v 1 2 -1
v 2 2 -1
v 2 3 -1
v 3 2 -1
v 3 3 -1
v -4 6 -2
v -4 7 -2
v -3 6 -2
v -3 7 -2
v -2 8 -2
v -2 9 -2
v -1 8 -2
v -1 9 -2
v -4 4 -3
v -4 6 -3
v -4 7 -3
v -4 9 -3
v -4 10 -3
v -4 15 -3
v -3 4 -3
v -3 5 -3
v -3 6 -3
v -3 7 -3
v -3 9 -3
v -3 10 -3
v -3 15 -3
v -2 5 -3
v -2 6 -3
v -1 5 -3
v -1 6 -3
v -4 9 -4
v -4 10 -4
v -3 9 -4
v -3 10 -4
v -4 5 4
v -4 6 4
v -3 5 4
v -3 6 4
v -4 6 2
v -4 7 2
v -3 2 2
v -3 3 2
v -3 6 2
v -3 7 2
v -3 8 2
v -2 2 2
v -2 3 2
v -2 5 2
v -2 6 2
v -2 7 2
v -2 8 2
v -2 9 2
v -1 5 2
v -1 6 2
v -1 8 2
v -1 9 2
v -4 5 1
v -4 6 1
v -3 3 1
v -3 5 1
v -3 6 1
v -3 7 1
v -2 3 1
v -2 5 1
v -2 6 1
v -2 7 1
v -1 9 1
v -1 10 1
v 0 0 1
v 0 2 1
v 0 9 1
v 0 10 1
v 1 0 1
v 1 2 1
v 2 1 1
v 2 2 1
v 3 1 1
v 3 2 1
v -3 5 -0
v -3 6 -0
v -2 5 -0
v -2 6 -0
v 2 2 -0
v 2 3 -0
v 3 2 -0
v 3 3 -0
v -2 11 -1
v -2 12 -1
v -1 2 -1
v -1 4 -1
v -1 11 -1
v -1 12 -1
v 0 2 -1
v 0 4 -1
v 0 11 -1
v 0 12 -1
v 1 6 -1
v 1 7 -1
v 2 6 -1
v 2 7 -1
v 2 8 -1
v 2 10 -1
v 2 11 -1
v 2 12 -1
v 3 8 -1
v 3 10 -1
v -2 10 -2
v -2 11 -2
v -1 4 -2
v -1 5 -2
v -1 6 -2
v -1 7 -2
v -1 8 -2
v -1 10 -2
v -1 11 -2
v -1 12 -2
v 0 0 -2
v 0 2 -2
v 0 4 -2
v 0 5 -2
v 0 6 -2
v 0 7 -2
v 0 8 -2
v 0 10 -2
v 0 11 -2
v 0 12 -2
v 1 0 -2
v 1 2 -2
v 1 6 -2
v 1 7 -2
v 1 10 -2
v 2 2 -2
v 2 3 -2
v 2 5 -2
v 2 6 -2
v 2 7 -2
v 2 10 -2
v 3 2 -2
v 3 5 -2
v 3 6 -2
v 3 10 -2
v 3 11 -2
v -2 8 -3
v -2 10 -3
v -1 10 -3
v -1 11 -3
v 0 2 -3
v 0 5 -3
v 0 7 -3
v 0 8 -3
v 0 10 -3
v 0 11 -3
v 1 2 -3
v 1 3 -3
v 1 5 -3
v 1 7 -3
v 1 10 -3
v 2 3 -3
v 2 5 -3
v -4 4 -4
v -4 6 -4
v -4 7 -4
v -4 8 -4
v -4 11 -4
v -4 15 -4
v -3 4 -4
v -3 5 -4
v -3 6 -4
v -3 7 -4
v -3 8 -4
v -3 11 -4
v -3 15 -4
v -2 5 -4
v -2 6 -4
v 1 5 -4
v 1 6 -4
v 2 5 -4
v 2 6 -4
v -4 6 -5
v -4 7 -5
v -4 8 -5
v -4 11 -5
v -3 6 -5
v -3 7 -5
v -3 8 -5
v -3 11 -5
v 0 0 2
v 1 0 2
v 0 0 1
v 1 0 1
v 0 0 -1
v 1 0 -1
v 0 0 -2
v 1 0 -2
v 2 1 2
v 3 1 2
v 2 1 1
v 3 1 1
v -3 2 4
v -2 2 4
v 0 2 3
v 1 2 3
v -3 2 2
v -2 2 2
v 0 2 2
v 1 2 2
v -1 2 1
v 0 2 1
v 1 2 1
v 2 2 1
v 3 2 1
v 2 2 -0
v 3 2 -0
v -1 2 -1
v 0 2 -1
v 1 2 -1
v 2 2 -1
v 3 2 -1
v 0 2 -2
v 1 2 -2
v 2 2 -2
v 3 2 -2
v 0 2 -3
v 1 2 -3
v -3 3 5
v -2 3 5
v -3 3 4
v -2 3 4
v 1 3 3
v 2 3 3
v -3 3 2
v -2 3 2
v 2 3 2
v -3 3 1
v -2 3 1
v 1 3 1
v 2 3 -0
v 3 3 -0
v 1 3 -1
v 2 3 -1
v 3 3 -1
v 2 3 -2
v 1 3 -3
v 2 3 -3
v -1 4 2
v 0 4 2
v -1 4 1
v 0 4 1
v -1 4 -1
v 0 4 -1
v -1 4 -2
v 0 4 -2
v -4 4 -3
v -3 4 -3
v -4 4 -4
v -3 4 -4
v -3 5 6
v -2 5 6
v -4 5 5
v -3 5 5
v -2 5 5
v -4 5 4
v -3 5 4
v 1 5 4
v 2 5 4
v -2 5 3
v -1 5 3
v 0 5 3
v 1 5 3
v 2 5 3
v -4 5 2
v -3 5 2
v -2 5 2
v -1 5 2
v 0 5 2
v -4 5 1
v -3 5 1
v -2 5 1
v -3 5 -0
v -2 5 -0
v -1 5 -2
v 0 5 -2
v -3 5 -3
v -2 5 -3
v -1 5 -3
v 0 5 -3
v 1 5 -3
v 2 5 -3
v -3 5 -4
v -2 5 -4
v 1 5 -4
v 2 5 -4
v -4 6 4
v -3 6 4
v -4 6 2
v -3 6 2
v -4 6 -2
v -3 6 -2
v -4 6 -3
v -3 6 -3
v -4 6 -4
v -3 6 -4
v -4 6 -5
v -3 6 -5
v 0 7 3
v 1 7 3
v 0 7 2
v 1 7 2
v 2 7 2
v 1 7 1
v 2 7 1
v 1 7 -1
v 2 7 -1
v 0 7 -2
v 1 7 -2
v 2 7 -2
v 0 7 -3
v 1 7 -3
v -2 8 3
v 0 8 3
v -2 8 2
v -1 8 2
v 0 8 2
v 2 8 1
v 3 8 1
v 2 8 -1
v 3 8 -1
v -2 8 -2
v -1 8 -2
v 0 8 -2
v -2 8 -3
v 0 8 -3
v -4 8 -4
v -3 8 -4
v -4 8 -5
v -3 8 -5
v -2 9 2
v -1 9 2
v -1 9 1
v -1 9 -1
v -2 9 -2
v -1 9 -2
v 2 10 2
v 3 10 2
v -1 10 1
v 0 10 1
v 2 10 1
v 3 10 1
v -1 10 -1
v 0 10 -1
v 2 10 -1
v 3 10 -1
v 2 10 -2
v 3 10 -2
v -4 10 -3
v -3 10 -3
v -4 10 -4
v -3 10 -4
v -3 6 6
v -2 6 6
v -4 6 5
v -3 6 5
v -2 6 5
v -4 6 4
v -3 6 4
v 1 6 4
v 2 6 4
v -2 6 3
v -1 6 3
v 1 6 3
v -4 6 2
v -3 6 2
v -2 6 2
v -1 6 2
v 0 6 2
v 1 6 2
v 2 6 2
v 3 6 2
v -4 6 1
v -3 6 1
v -2 6 1
v 1 6 1
v 2 6 1
v 3 6 1
v -3 6 -0
v -2 6 -0
v 1 6 -1
v 2 6 -1
v 3 6 -1
v -1 6 -2
v 0 6 -2
v 1 6 -2
v 2 6 -2
v 3 6 -2
v -3 6 -3
v -2 6 -3
v -1 6 -3
v -3 6 -4
v -2 6 -4
v 1 6 -4
v 2 6 -4
v -3 7 5
v -2 7 5
v -4 7 4
v -3 7 4
v -2 7 4
v -4 7 2
v -3 7 2
v -2 7 2
v -3 7 1
v -2 7 1
v -4 7 -2
v -3 7 -2
v -4 7 -3
v -3 7 -3
v -4 7 -4
v -3 7 -4
v -4 7 -5
v -3 7 -5
v -3 8 4
v -2 8 4
v -2 8 3
v -3 8 2
v -2 8 2
v -1 9 1
v 0 9 1
v -1 9 -1
v 0 9 -1
v -4 9 -3
v -3 9 -3
v -4 9 -4
v -3 9 -4
v -2 10 3
v -1 10 3
v 0 10 3
v 1 10 3
v -2 10 2
v -1 10 2
v 0 10 2
v 1 10 2
v -2 10 -2
v -1 10 -2
v 0 10 -2
v 1 10 -2
v -2 10 -3
v -1 10 -3
v 0 10 -3
v 1 10 -3
v -1 11 3
v 0 11 3
v -2 11 2
v -1 11 2
v 0 11 2
v 3 11 2
v -2 11 1
v -1 11 1
v 0 11 1
v 2 11 1
v -2 11 -1
v -1 11 -1
v 0 11 -1
v 2 11 -1
v -2 11 -2
v -1 11 -2
v 0 11 -2
v 3 11 -2
v -1 11 -3
v 0 11 -3
v -4 11 -4
v -3 11 -4
v -4 11 -5
v -3 11 -5
v -1 12 2
v 0 12 2
v -2 12 1
v -1 12 1
v 0 12 1
v 2 12 1
v -2 12 -1
v -1 12 -1
v 0 12 -1
v 2 12 -1
v -1 12 -2
v 0 12 -2
v -4 15 -3
v -3 15 -3
v -4 15 -4
v -3 15 -4

# faces
f 7/5/1 4/5/1 3/5/1
f 8/5/1 4/5/1 7/5/1
f 9/5/1 6/5/1 5/5/1
f 10/5/1 6/5/1 9/5/1
f 12/9/1 2/9/1 1/9/1
f 13/9/1 2/9/1 12/9/1
f 15/5/1 9/5/1 8/5/1
f 16/5/1 9/5/1 15/5/1
f 17/9/1 14/9/1 13/9/1
f 17/9/1 13/9/1 12/9/1
f 17/9/1 12/9/1 11/9/1
f 18/9/1 14/9/1 17/9/1
f 19/9/1 14/9/1 18/9/1
f 20/9/1 14/9/1 19/9/1
f 21/1/1 19/1/1 18/1/1
f 23/1/1 21/1/1 18/1/1
f 23/1/1 22/1/1 21/1/1
f 24/1/1 22/1/1 23/1/1
f 26/1/1 22/1/1 24/1/1
f 27/1/1 22/1/1 26/1/1
f 27/1/1 26/1/1 25/1/1
f 28/1/1 22/1/1 27/1/1
f 29/1/1 27/1/1 25/1/1
f 30/1/1 27/1/1 29/1/1
f 34/5/1 32/5/1 31/5/1
f 35/5/1 32/5/1 34/5/1
f 38/5/1 34/5/1 33/5/1
f 39/10/1 35/10/1 34/10/1
f 39/5/1 34/5/1 38/5/1
f 40/5/1 36/5/1 35/5/1
f 40/10/1 35/10/1 39/10/1
f 41/5/1 36/5/1 40/5/1
f 43/5/1 38/5/1 37/5/1
f 44/5/1 38/5/1 43/5/1
f 45/10/1 40/10/1 39/10/1
f 46/10/1 40/10/1 45/10/1
f 47/5/1 42/5/1 41/5/1
f 48/5/1 42/5/1 47/5/1
f 49/5/1 45/5/1 44/5/1
f 50/5/1 45/5/1 49/5/1
f 51/5/1 47/5/1 46/5/1
f 52/5/1 47/5/1 51/5/1
f 53/5/1 51/5/1 50/5/1
f 54/5/1 51/5/1 53/5/1
f 59/3/1 56/3/1 55/3/1
f 60/3/1 58/3/1 57/3/1
f 61/3/1 59/3/1 55/3/1
f 61/3/1 60/3/1 59/3/1
f 62/3/1 60/3/1 61/3/1
f 63/3/1 58/3/1 60/3/1
f 63/3/1 60/3/1 62/3/1
f 64/3/1 58/3/1 63/3/1
f 65/3/1 63/3/1 62/3/1
f 66/3/1 63/3/1 65/3/1
f 67/3/1 63/3/1 66/3/1
f 68/3/1 63/3/1 67/3/1
f 69/3/1 67/3/1 66/3/1
f 70/3/1 67/3/1 69/3/1
f 74/2/1 72/2/1 71/2/1
f 75/2/1 72/2/1 74/2/1
f 77/2/1 74/2/1 73/2/1
f 77/2/1 76/2/1 75/2/1
f 77/2/1 75/2/1 74/2/1
f 78/2/1 76/2/1 77/2/1
f 80/2/1 78/2/1 77/2/1
f 81/2/1 78/2/1 80/2/1
f 82/2/1 78/2/1 81/2/1
f 83/3/1 79/3/1 78/3/1
f 83/2/1 78/2/1 82/2/1
f 84/3/1 79/3/1 83/3/1
f 85/7/1 81/7/1 80/7/1
f 86/8/1 82/8/1 81/8/1
f 86/7/1 81/7/1 85/7/1
f 87/7/1 83/7/1 82/7/1
f 87/8/1 82/8/1 86/8/1
f 88/7/1 83/7/1 87/7/1
f 89/6/1 86/6/1 85/6/1
f 89/6/1 87/6/1 86/6/1
f 89/6/1 88/6/1 87/6/1
f 90/6/1 88/6/1 89/6/1
f 91/6/1 88/6/1 90/6/1
f 92/6/1 88/6/1 91/6/1
f 93/4/1 90/4/1 89/4/1
f 94/6/1 91/6/1 90/6/1
f 94/4/1 90/4/1 93/4/1
f 95/4/1 92/4/1 91/4/1
f 95/6/1 91/6/1 94/6/1
f 96/4/1 92/4/1 95/4/1
f 101/3/1 98/3/1 97/3/1
f 102/3/1 98/3/1 101/3/1
f 105/3/1 100/3/1 99/3/1
f 106/3/1 100/3/1 105/3/1
f 107/3/1 103/3/1 102/3/1
f 108/3/1 103/3/1 107/3/1
f 109/3/1 105/3/1 104/3/1
f 110/3/1 105/3/1 109/3/1
f 116/3/1 112/3/1 111/3/1
f 117/3/1 112/3/1 116/3/1
f 118/3/1 114/3/1 113/3/1
f 119/3/1 114/3/1 118/3/1
f 121/3/1 117/3/1 116/3/1
f 121/3/1 116/3/1 115/3/1
f 122/3/1 117/3/1 121/3/1
f 123/3/1 120/3/1 119/3/1
f 123/3/1 119/3/1 118/3/1
f 124/3/1 120/3/1 123/3/1
f 125/3/1 121/3/1 115/3/1
f 126/3/1 121/3/1 125/3/1
f 127/3/1 120/3/1 124/3/1
f 128/3/1 120/3/1 127/3/1
f 133/3/1 130/3/1 129/3/1
f 134/3/1 130/3/1 133/3/1
f 135/3/1 132/3/1 131/3/1
f 136/3/1 132/3/1 135/3/1
f 139/3/1 138/3/1 137/3/1
f 140/3/1 138/3/1 139/3/1
f 143/5/1 142/5/1 141/5/1
f 144/5/1 142/5/1 143/5/1
f 147/10/1 146/10/1 145/10/1
f 151/10/1 147/10/1 145/10/1
f 151/10/1 148/10/1 147/10/1
f 152/10/1 148/10/1 151/10/1
f 153/10/1 150/10/1 149/10/1
f 154/10/1 150/10/1 153/10/1
f 155/9/2 156/9/2 157/9/2
f 157/9/2 156/9/2 158/9/2
f 160/9/2 161/9/2 163/9/2
f 161/9/2 162/9/2 163/9/2
f 159/9/2 160/9/2 163/9/2
f 163/9/2 162/9/2 164/9/2
f 164/9/2 162/9/2 165/9/2
f 165/9/2 162/9/2 166/9/2
f 164/1/2 165/1/2 167/1/2
f 164/1/2 167/1/2 169/1/2
f 167/1/2 168/1/2 169/1/2
f 169/1/2 168/1/2 170/1/2
f 170/1/2 168/1/2 172/1/2
f 172/1/2 168/1/2 173/1/2
f 171/1/2 172/1/2 173/1/2
f 173/1/2 168/1/2 174/1/2
f 171/1/2 173/1/2 175/1/2
f 175/1/2 173/1/2 176/1/2
f 177/5/2 178/5/2 180/5/2
f 180/5/2 178/5/2 181/5/2
f 179/5/2 180/5/2 184/5/2
f 180/10/2 181/10/2 185/10/2
f 181/5/2 182/5/2 186/5/2
f 185/10/2 181/10/2 186/10/2
f 186/5/2 182/5/2 187/5/2
f 183/5/2 184/5/2 189/5/2
f 184/5/2 180/5/2 190/5/2
f 189/5/2 184/5/2 190/5/2
f 180/10/2 185/10/2 191/10/2
f 190/5/2 180/5/2 191/5/2
f 191/10/2 185/10/2 192/10/2
f 187/5/2 188/5/2 193/5/2
f 186/5/2 187/5/2 193/5/2
f 193/5/2 188/5/2 194/5/2
f 194/5/2 188/5/2 195/5/2
f 191/5/2 192/5/2 196/5/2
f 193/5/2 194/5/2 196/5/2
f 192/5/2 193/5/2 196/5/2
f 190/5/2 191/5/2 196/5/2
f 196/5/2 194/5/2 197/5/2
f 197/5/2 194/5/2 198/5/2
f 198/5/2 194/5/2 199/5/2
f 197/5/2 198/5/2 200/5/2
f 200/5/2 198/5/2 201/5/2
f 201/5/2 198/5/2 202/5/2
f 203/3/2 204/3/2 205/3/2
f 205/3/2 204/3/2 206/3/2
f 207/3/2 208/3/2 211/3/2
f 211/3/2 208/3/2 212/3/2
f 209/3/2 210/3/2 215/3/2
f 215/3/2 210/3/2 216/3/2
f 212/3/2 213/3/2 217/3/2
f 217/3/2 213/3/2 218/3/2
f 214/3/2 215/3/2 219/3/2
f 219/3/2 215/3/2 220/3/2
f 221/3/2 222/3/2 226/3/2
f 226/3/2 222/3/2 227/3/2
f 223/3/2 224/3/2 228/3/2
f 228/3/2 224/3/2 229/3/2
f 226/3/2 227/3/2 231/3/2
f 225/3/2 226/3/2 231/3/2
f 227/2/2 228/2/2 232/2/2
f 231/3/2 227/3/2 232/3/2
f 229/3/2 230/3/2 233/3/2
f 232/2/2 228/2/2 233/2/2
f 228/3/2 229/3/2 233/3/2
f 233/3/2 230/3/2 234/3/2
f 235/6/2 236/6/2 240/6/2
f 240/6/2 236/6/2 241/6/2
f 237/6/2 238/6/2 242/6/2
f 242/6/2 238/6/2 243/6/2
f 239/3/2 240/3/2 245/3/2
f 245/3/2 240/3/2 246/3/2
f 243/3/2 244/3/2 247/3/2
f 247/3/2 244/3/2 248/3/2
f 249/3/2 250/3/2 254/3/2
f 254/3/2 250/3/2 255/3/2
f 251/3/2 252/3/2 256/3/2
f 256/3/2 252/3/2 257/3/2
f 254/5/2 255/5/2 259/5/2
f 253/5/2 254/5/2 259/5/2
f 259/5/2 255/5/2 260/5/2
f 257/5/2 258/5/2 263/5/2
f 256/5/2 257/5/2 263/5/2
f 263/5/2 258/5/2 264/5/2
f 261/3/2 262/3/2 266/3/2
f 266/3/2 262/3/2 267/3/2
f 265/3/2 266/3/2 269/3/2
f 267/3/2 268/3/2 269/3/2
f 266/3/2 267/3/2 269/3/2
f 269/3/2 268/3/2 270/3/2
f 265/3/2 269/3/2 271/3/2
f 271/3/2 269/3/2 272/3/2
f 270/3/2 268/3/2 273/3/2
f 273/3/2 268/3/2 274/3/2
f 275/3/2 276/3/2 277/3/2
f 277/3/2 276/3/2 278/3/2
f 279/10/2 280/10/2 281/10/2
f 281/10/2 282/10/2 285/10/2
f 283/10/2 284/10/2 286/10/2
f 279/10/2 281/10/2 287/10/2
f 285/10/2 286/10/2 287/10/2
f 281/10/2 285/10/2 287/10/2
f 287/10/2 286/10/2 288/10/2
f 286/10/2 284/10/2 289/10/2
f 288/10/2 286/10/2 289/10/2
f 289/10/2 284/10/2 290/10/2
f 287/5/2 288/5/2 291/5/2
f 288/10/2 289/10/2 292/10/2
f 291/5/2 288/5/2 292/5/2
f 289/5/2 290/5/2 293/5/2
f 292/10/2 289/10/2 293/10/2
f 293/5/2 290/5/2 294/5/2
f 295/3/2 296/3/2 298/3/2
f 298/3/2 296/3/2 299/3/2
f 297/3/2 298/3/2 301/3/2
f 299/3/2 300/3/2 301/3/2
f 298/3/2 299/3/2 301/3/2
f 301/3/2 300/3/2 302/3/2
f 305/5/3 304/5/3 303/5/3
f 306/5/3 304/5/3 305/5/3
f 310/5/3 308/5/3 307/5/3
f 311/5/3 308/5/3 310/5/3
f 313/5/3 310/5/3 309/5/3
f 314/5/3 310/5/3 313/5/3
f 315/5/3 312/5/3 311/5/3
f 316/5/3 312/5/3 315/5/3
f 321/5/3 318/5/3 317/5/3
f 322/5/3 318/5/3 321/5/3
f 324/5/3 320/5/3 319/5/3
f 325/5/3 320/5/3 324/5/3
f 326/5/3 323/5/3 322/5/3
f 327/5/3 323/5/3 326/5/3
f 330/5/3 329/5/3 328/5/3
f 331/5/3 329/5/3 330/5/3
f 336/6/3 333/6/3 332/6/3
f 337/6/3 333/6/3 336/6/3
f 338/3/3 335/3/3 334/3/3
f 341/3/3 337/3/3 336/3/3
f 343/3/3 339/3/3 338/3/3
f 343/3/3 338/3/3 334/3/3
f 344/3/3 339/3/3 343/3/3
f 345/3/3 339/3/3 344/3/3
f 346/3/3 341/3/3 340/3/3
f 347/3/3 341/3/3 346/3/3
f 348/3/3 337/3/3 341/3/3
f 348/3/3 341/3/3 347/3/3
f 349/3/3 337/3/3 348/3/3
f 350/3/3 343/3/3 342/3/3
f 350/3/3 344/3/3 343/3/3
f 351/3/3 344/3/3 350/3/3
f 352/3/3 348/3/3 347/3/3
f 353/3/3 348/3/3 352/3/3
f 356/5/3 355/5/3 354/5/3
f 357/5/3 355/5/3 356/5/3
f 365/3/3 359/3/3 358/3/3
f 366/3/3 359/3/3 365/3/3
f 370/2/3 361/2/3 360/2/3
f 371/2/3 361/2/3 370/2/3
f 372/7/3 363/7/3 362/7/3
f 373/6/3 364/6/3 363/6/3
f 373/7/3 363/7/3 372/7/3
f 374/6/3 364/6/3 373/6/3
f 376/3/3 367/3/3 366/3/3
f 377/3/3 367/3/3 376/3/3
f 378/3/3 369/3/3 368/3/3
f 379/3/3 369/3/3 378/3/3
f 380/6/3 373/6/3 372/6/3
f 381/6/3 373/6/3 380/6/3
f 382/3/3 376/3/3 375/3/3
f 387/3/3 382/3/3 381/3/3
f 388/3/3 376/3/3 382/3/3
f 388/3/3 382/3/3 387/3/3
f 389/10/3 384/10/3 383/10/3
f 389/10/3 385/10/3 384/10/3
f 390/5/3 386/5/3 385/5/3
f 390/10/3 385/10/3 389/10/3
f 391/5/3 386/5/3 390/5/3
f 392/3/3 376/3/3 388/3/3
f 393/3/3 376/3/3 392/3/3
f 398/3/3 395/3/3 394/3/3
f 399/3/3 395/3/3 398/3/3
f 400/2/3 397/2/3 396/2/3
f 401/2/3 397/2/3 400/2/3
f 406/3/3 405/3/3 404/3/3
f 407/3/3 405/3/3 406/3/3
f 410/3/3 403/3/3 402/3/3
f 411/3/3 403/3/3 410/3/3
f 412/3/3 409/3/3 408/3/3
f 413/3/3 409/3/3 412/3/3
f 418/3/3 415/3/3 414/3/3
f 419/3/3 415/3/3 418/3/3
f 420/3/3 417/3/3 416/3/3
f 421/3/3 417/3/3 420/3/3
f 424/10/3 423/10/3 422/10/3
f 425/10/3 423/10/3 424/10/3
f 428/9/3 427/9/3 426/9/3
f 429/9/3 427/9/3 428/9/3
f 432/3/3 431/3/3 430/3/3
f 433/3/3 431/3/3 432/3/3
f 440/9/3 435/9/3 434/9/3
f 441/9/3 435/9/3 440/9/3
f 442/9/3 435/9/3 441/9/3
f 443/1/3 437/1/3 436/1/3
f 444/1/3 437/1/3 443/1/3
f 445/1/3 439/1/3 438/1/3
f 446/1/3 439/1/3 445/1/3
f 447/6/3 442/6/3 441/6/3
f 448/6/3 442/6/3 447/6/3
f 449/3/3 448/3/3 447/3/3
f 450/3/3 448/3/3 449/3/3
f 453/1/3 452/1/3 451/1/3
f 454/1/3 452/1/3 453/1/3
f 455/5/4 456/5/4 457/5/4
f 457/5/4 456/5/4 458/5/4
f 459/5/4 460/5/4 463/5/4
f 463/5/4 460/5/4 464/5/4
f 461/5/4 462/5/4 466/5/4
f 466/5/4 462/5/4 467/5/4
f 464/5/4 465/5/4 470/5/4
f 470/5/4 465/5/4 471/5/4
f 468/6/4 469/6/4 473/6/4
f 473/6/4 469/6/4 474/6/4
f 471/3/4 472/3/4 475/3/4
f 475/3/4 472/3/4 476/3/4
f 477/5/4 478/5/4 480/5/4
f 480/5/4 478/5/4 481/5/4
f 479/5/4 480/5/4 483/5/4
f 483/5/4 480/5/4 484/5/4
f 481/5/4 482/5/4 485/5/4
f 485/5/4 482/5/4 486/5/4
f 487/3/4 488/3/4 491/3/4
f 491/3/4 488/3/4 492/3/4
f 489/3/4 490/3/4 493/3/4
f 493/3/4 490/3/4 494/3/4
f 495/10/4 496/10/4 497/10/4
f 497/10/4 496/10/4 498/10/4
f 499/5/4 500/5/4 501/5/4
f 501/5/4 500/5/4 502/5/4
f 503/10/4 504/10/4 505/10/4
f 505/10/4 504/10/4 506/10/4
f 507/3/4 508/3/4 511/3/4
f 511/3/4 508/3/4 512/3/4
f 509/2/4 510/2/4 513/2/4
f 513/2/4 510/2/4 514/2/4
f 517/3/4 518/3/4 519/3/4
f 519/3/4 518/3/4 520/3/4
f 515/3/4 516/3/4 523/3/4
f 523/3/4 516/3/4 524/3/4
f 521/3/4 522/3/4 525/3/4
f 525/3/4 522/3/4 526/3/4
f 527/3/4 528/3/4 534/3/4
f 534/3/4 528/3/4 535/3/4
f 529/2/4 530/2/4 539/2/4
f 539/2/4 530/2/4 540/2/4
f 531/7/4 532/7/4 541/7/4
f 532/6/4 533/6/4 542/6/4
f 541/7/4 532/7/4 542/7/4
f 542/6/4 533/6/4 543/6/4
f 535/3/4 536/3/4 545/3/4
f 545/3/4 536/3/4 546/3/4
f 537/3/4 538/3/4 547/3/4
f 547/3/4 538/3/4 548/3/4
f 541/6/4 542/6/4 549/6/4
f 549/6/4 542/6/4 550/6/4
f 544/3/4 545/3/4 551/3/4
f 550/3/4 551/3/4 556/3/4
f 551/3/4 545/3/4 557/3/4
f 556/3/4 551/3/4 557/3/4
f 552/10/4 553/10/4 558/10/4
f 553/10/4 554/10/4 558/10/4
f 554/5/4 555/5/4 559/5/4
f 558/10/4 554/10/4 559/10/4
f 559/5/4 555/5/4 560/5/4
f 557/3/4 545/3/4 561/3/4
f 561/3/4 545/3/4 562/3/4
f 563/3/4 564/3/4 565/3/4
f 563/3/4 565/3/4 570/3/4
f 565/3/4 566/3/4 570/3/4
f 570/3/4 566/3/4 571/3/4
f 571/3/4 566/3/4 572/3/4
f 567/3/4 568/3/4 573/3/4
f 573/3/4 568/3/4 574/3/4
f 574/3/4 568/3/4 575/3/4
f 569/3/4 570/3/4 576/3/4
f 570/3/4 571/3/4 576/3/4
f 576/3/4 571/3/4 577/3/4
f 574/3/4 575/3/4 578/3/4
f 578/3/4 575/3/4 579/3/4
f 580/9/4 581/9/4 586/9/4
f 586/9/4 581/9/4 587/9/4
f 587/9/4 581/9/4 588/9/4
f 582/1/4 583/1/4 589/1/4
f 589/1/4 583/1/4 590/1/4
f 584/1/4 585/1/4 591/1/4
f 591/1/4 585/1/4 592/1/4
f 587/6/4 588/6/4 593/6/4
f 593/6/4 588/6/4 594/6/4
f 593/3/4 594/3/4 595/3/4
f 595/3/4 594/3/4 596/3/4
f 595/5/4 596/5/4 597/5/4
f 597/5/4 596/5/4 598/5/4
f 599/9/4 600/9/4 603/9/4
f 603/9/4 600/9/4 604/9/4
f 601/1/4 602/1/4 605/1/4
f 605/1/4 602/1/4 606/1/4
f 609/3/5 608/3/5 607/3/5
f 610/3/5 608/3/5 609/3/5
f 613/3/5 612/3/5 611/3/5
f 614/3/5 612/3/5 613/3/5
f 617/10/5 616/10/5 615/10/5
f 618/10/5 616/10/5 617/10/5
f 623/5/5 620/5/5 619/5/5
f 624/5/5 620/5/5 623/5/5
f 625/3/5 622/3/5 621/3/5
f 626/3/5 622/3/5 625/3/5
f 632/10/5 631/10/5 630/10/5
f 633/10/5 631/10/5 632/10/5
f 634/2/5 629/2/5 628/2/5
f 634/2/5 628/2/5 627/2/5
f 635/2/5 629/2/5 634/2/5
f 636/2/5 629/2/5 635/2/5
f 641/10/5 638/10/5 637/10/5
f 642/10/5 638/10/5 641/10/5
f 643/3/5 640/3/5 639/3/5
f 644/3/5 640/3/5 643/3/5
f 647/5/5 646/5/5 645/5/5
f 648/5/5 646/5/5 647/5/5
f 653/3/5 650/3/5 649/3/5
f 654/5/5 652/5/5 651/5/5
f 655/5/5 652/5/5 654/5/5
f 656/3/5 653/3/5 649/3/5
f 657/3/5 653/3/5 656/3/5
f 659/3/5 657/3/5 656/3/5
f 660/10/5 658/10/5 657/10/5
f 660/3/5 657/3/5 659/3/5
f 661/10/5 658/10/5 660/10/5
f 662/3/5 660/3/5 659/3/5
f 663/3/5 662/3/5 659/3/5
f 664/3/5 662/3/5 663/3/5
f 667/2/5 666/2/5 665/2/5
f 668/2/5 666/2/5 667/2/5
f 671/2/5 670/2/5 669/2/5
f 672/2/5 670/2/5 671/2/5
f 675/9/5 674/9/5 673/9/5
f 676/9/5 674/9/5 675/9/5
f 680/5/5 678/5/5 677/5/5
f 681/5/5 678/5/5 680/5/5
f 682/5/5 680/5/5 679/5/5
f 683/5/5 680/5/5 682/5/5
f 689/5/5 685/5/5 684/5/5
f 690/5/5 685/5/5 689/5/5
f 693/6/5 687/6/5 686/6/5
f 694/3/5 688/3/5 687/3/5
f 694/6/5 687/6/5 693/6/5
f 695/3/5 688/3/5 694/3/5
f 696/5/5 692/5/5 691/5/5
f 697/5/5 692/5/5 696/5/5
f 699/5/5 698/5/5 697/5/5
f 700/5/5 698/5/5 699/5/5
f 705/3/5 702/3/5 701/3/5
f 706/3/5 702/3/5 705/3/5
f 709/6/5 704/6/5 703/6/5
f 710/3/5 706/3/5 705/3/5
f 710/6/5 704/6/5 709/6/5
f 710/3/5 705/3/5 704/3/5
f 710/3/5 707/3/5 706/3/5
f 711/5/5 708/5/5 707/5/5
f 711/3/5 707/3/5 710/3/5
f 712/5/5 708/5/5 711/5/5
f 715/5/5 714/5/5 713/5/5
f 716/5/5 714/5/5 715/5/5
f 719/9/5 718/9/5 717/9/5
f 720/9/5 718/9/5 719/9/5
f 723/9/5 722/9/5 721/9/5
f 724/9/5 722/9/5 723/9/5
f 727/3/5 726/3/5 725/3/5
f 728/3/5 726/3/5 727/3/5
f 730/3/5 729/3/5 728/3/5
f 731/3/5 729/3/5 730/3/5
f 735/3/5 733/3/5 732/3/5
f 736/3/5 733/3/5 735/3/5
f 737/3/5 735/3/5 734/3/5
f 738/3/5 735/3/5 737/3/5
f 741/3/5 740/3/5 739/3/5
f 742/3/5 740/3/5 741/3/5
f 743/3/5 740/3/5 742/3/5
f 746/3/5 745/3/5 744/3/5
f 747/3/5 745/3/5 746/3/5
f 751/3/5 749/3/5 748/3/5
f 751/3/5 750/3/5 749/3/5
f 752/3/5 750/3/5 751/3/5
f 755/1/5 754/1/5 753/1/5
f 756/1/5 754/1/5 755/1/5
f 759/3/5 758/3/5 757/3/5
f 760/3/5 759/3/5 757/3/5
f 761/3/5 760/3/5 757/3/5
f 762/3/5 760/3/5 761/3/5
f 767/3/5 764/3/5 763/3/5
f 768/3/5 764/3/5 767/3/5
f 769/3/5 766/3/5 765/3/5
f 770/3/5 766/3/5 769/3/5
f 773/3/5 772/3/5 771/3/5
f 774/3/5 772/3/5 773/3/5
f 777/1/5 776/1/5 775/1/5
f 778/1/5 776/1/5 777/1/5
f 779/5/6 780/5/6 782/5/6
f 782/5/6 780/5/6 783/5/6
f 781/5/6 782/5/6 784/5/6
f 784/5/6 782/5/6 785/5/6
f 786/5/6 787/5/6 790/5/6
f 788/6/6 789/6/6 793/6/6
f 789/3/6 790/3/6 794/3/6
f 793/6/6 789/6/6 794/6/6
f 794/3/6 790/3/6 795/3/6
f 790/5/6 787/5/6 796/5/6
f 795/3/6 790/3/6 796/3/6
f 796/5/6 787/5/6 797/5/6
f 791/5/6 792/5/6 799/5/6
f 799/5/6 792/5/6 800/5/6
f 796/10/6 797/10/6 802/10/6
f 797/5/6 798/5/6 803/5/6
f 802/10/6 797/10/6 803/10/6
f 803/5/6 798/5/6 804/5/6
f 800/5/6 801/5/6 805/5/6
f 805/5/6 801/5/6 806/5/6
f 803/10/6 804/10/6 808/10/6
f 808/10/6 804/10/6 809/10/6
f 807/10/6 808/10/6 812/10/6
f 808/5/6 809/5/6 813/5/6
f 812/10/6 808/10/6 813/10/6
f 813/5/6 809/5/6 814/5/6
f 810/3/6 811/3/6 817/3/6
f 811/3/6 812/3/6 817/3/6
f 815/6/6 816/6/6 818/6/6
f 816/3/6 817/3/6 819/3/6
f 818/6/6 816/6/6 819/6/6
f 812/5/6 813/5/6 820/5/6
f 819/3/6 817/3/6 820/3/6
f 817/3/6 812/3/6 820/3/6
f 820/5/6 813/5/6 821/5/6
f 822/5/6 823/5/6 825/5/6
f 825/5/6 823/5/6 826/5/6
f 824/5/6 825/5/6 827/5/6
f 827/5/6 825/5/6 828/5/6
f 828/5/6 829/5/6 830/5/6
f 830/5/6 829/5/6 831/5/6
f 832/9/6 833/9/6 834/9/6
f 834/9/6 833/9/6 835/9/6
f 836/9/6 837/9/6 838/9/6
f 838/9/6 837/9/6 839/9/6
f 840/5/6 841/5/6 842/5/6
f 840/5/6 842/5/6 843/5/6
f 843/5/6 842/5/6 844/5/6
f 845/6/6 846/6/6 847/6/6
f 847/6/6 846/6/6 848/6/6
f 849/1/6 850/1/6 851/1/6
f 851/1/6 850/1/6 852/1/6
f 853/3/6 854/3/6 857/3/6
f 857/3/6 854/3/6 858/3/6
f 855/3/6 856/3/6 859/3/6
f 859/3/6 856/3/6 860/3/6
f 861/3/6 862/3/6 865/3/6
f 865/3/6 862/3/6 866/3/6
f 863/3/6 864/3/6 867/3/6
f 867/3/6 864/3/6 868/3/6
f 869/3/6 870/3/6 872/3/6
f 872/3/6 870/3/6 873/3/6
f 871/3/6 872/3/6 875/3/6
f 875/3/6 872/3/6 876/3/6
f 873/3/6 874/3/6 877/3/6
f 877/3/6 874/3/6 878/3/6
f 878/3/6 874/3/6 882/3/6
f 879/3/6 880/3/6 883/3/6
f 883/3/6 880/3/6 884/3/6
f 881/3/6 882/3/6 885/3/6
f 882/3/6 874/3/6 886/3/6
f 885/3/6 882/3/6 886/3/6
f 884/3/6 885/3/6 887/3/6
f 887/3/6 885/3/6 888/3/6
f 889/1/6 890/1/6 891/1/6
f 891/1/6 890/1/6 892/1/6
f 893/3/6 894/3/6 896/3/6
f 896/3/6 894/3/6 897/3/6
f 895/3/6 896/3/6 899/3/6
f 897/3/6 898/3/6 899/3/6
f 896/3/6 897/3/6 899/3/6
f 899/3/6 898/3/6 900/3/6
f 900/3/6 898/3/6 901/3/6
f 901/3/6 898/3/6 902/3/6
f 900/3/6 901/3/6 903/3/6
f 903/3/6 901/3/6 904/3/6
f 905/1/6 906/1/6 907/1/6
f 907/1/6 906/1/6 908/1/6
